<mxfile host="app.diagrams.net" modified="2021-01-31T11:47:33.173Z" agent="5.0 (Macintosh; Intel Mac OS X 11_1_0) AppleWebKit/537.36 (KHTML, like Gecko) Chrome/88.0.4324.96 Safari/537.36" etag="FEcI_qmM5D9ytTTq_P1s" version="14.2.9" type="github">
  <diagram id="sDwjNGOuj7Jm8Y4Agvf9" name="第 1 页">
    <mxGraphModel dx="1426" dy="769" grid="1" gridSize="10" guides="1" tooltips="1" connect="1" arrows="1" fold="1" page="1" pageScale="1" pageWidth="827" pageHeight="1169" math="0" shadow="0">
      <root>
        <mxCell id="0" />
        <mxCell id="1" parent="0" />
        <mxCell id="Zxvds3JcxAFImBv_wv43-1" value="" style="rounded=0;whiteSpace=wrap;html=1;sketch=1;fillStyle=auto;fillColor=#1A1A1A;" vertex="1" parent="1">
          <mxGeometry x="320" y="550" width="50" height="35" as="geometry" />
        </mxCell>
        <mxCell id="Zxvds3JcxAFImBv_wv43-2" value="" style="rounded=0;whiteSpace=wrap;html=1;sketch=1;fillStyle=auto;fillColor=#1A1A1A;" vertex="1" parent="1">
          <mxGeometry x="390" y="530" width="60" height="55" as="geometry" />
        </mxCell>
        <mxCell id="Zxvds3JcxAFImBv_wv43-3" value="" style="rounded=0;whiteSpace=wrap;html=1;sketch=1;fillStyle=auto;fillColor=#1A1A1A;" vertex="1" parent="1">
          <mxGeometry x="470" y="470" width="60" height="110" as="geometry" />
        </mxCell>
        <mxCell id="Zxvds3JcxAFImBv_wv43-4" value="" style="rounded=0;whiteSpace=wrap;html=1;sketch=1;fillStyle=auto;fillColor=#1A1A1A;" vertex="1" parent="1">
          <mxGeometry x="560" y="460" width="60" height="120" as="geometry" />
        </mxCell>
        <mxCell id="Zxvds3JcxAFImBv_wv43-5" value="&lt;pre&gt;&lt;br&gt;&lt;/pre&gt;" style="rounded=0;whiteSpace=wrap;html=1;sketch=1;fillStyle=auto;fillColor=#1A1A1A;" vertex="1" parent="1">
          <mxGeometry x="650" y="450" width="60" height="130" as="geometry" />
        </mxCell>
      </root>
    </mxGraphModel>
  </diagram>
</mxfile>
